<svg xmlns="http://www.w3.org/2000/svg" viewBox="0 0 129.6 75.65" width="129.60000610351562" height="75.6500015258789">
  <defs>
    <style>
    .cls-1{fill:#414042;}
    .cls-2{fill:#ed1c24;}
    /***************************************************
 * Generated by SVG Artista on 5/17/2022, 3:58:14 PM
 * MIT license (https://opensource.org/licenses/MIT)
 * W. https://svgartista.net
 **************************************************/

@-webkit-keyframes animate-svg-fill-1 {
  0% {
    fill: transparent;
  }

  100% {
    fill: rgb(65, 64, 66);
  }
}

@keyframes animate-svg-fill-1 {
  0% {
    fill: transparent;
  }

  100% {
    fill: rgb(65, 64, 66);
  }
}

.svg-elem-1 {
  -webkit-animation: animate-svg-fill-1 0.7s ease 0.8s both;
          animation: animate-svg-fill-1 0.7s ease 0.8s both;
}

@-webkit-keyframes animate-svg-fill-2 {
  0% {
    fill: transparent;
  }

  100% {
    fill: rgb(65, 64, 66);
  }
}

@keyframes animate-svg-fill-2 {
  0% {
    fill: transparent;
  }

  100% {
    fill: rgb(65, 64, 66);
  }
}

.svg-elem-2 {
  -webkit-animation: animate-svg-fill-2 0.7s ease 0.9s both;
          animation: animate-svg-fill-2 0.7s ease 0.9s both;
}

@-webkit-keyframes animate-svg-fill-3 {
  0% {
    fill: transparent;
  }

  100% {
    fill: rgb(65, 64, 66);
  }
}

@keyframes animate-svg-fill-3 {
  0% {
    fill: transparent;
  }

  100% {
    fill: rgb(65, 64, 66);
  }
}

.svg-elem-3 {
  -webkit-animation: animate-svg-fill-3 0.7s ease 1s both;
          animation: animate-svg-fill-3 0.7s ease 1s both;
}

@-webkit-keyframes animate-svg-fill-4 {
  0% {
    fill: transparent;
  }

  100% {
    fill: rgb(65, 64, 66);
  }
}

@keyframes animate-svg-fill-4 {
  0% {
    fill: transparent;
  }

  100% {
    fill: rgb(65, 64, 66);
  }
}

.svg-elem-4 {
  -webkit-animation: animate-svg-fill-4 0.7s ease 1.1s both;
          animation: animate-svg-fill-4 0.7s ease 1.1s both;
}

@-webkit-keyframes animate-svg-fill-5 {
  0% {
    fill: transparent;
  }

  100% {
    fill: rgb(65, 64, 66);
  }
}

@keyframes animate-svg-fill-5 {
  0% {
    fill: transparent;
  }

  100% {
    fill: rgb(65, 64, 66);
  }
}

.svg-elem-5 {
  -webkit-animation: animate-svg-fill-5 0.7s ease 1.2000000000000002s both;
          animation: animate-svg-fill-5 0.7s ease 1.2000000000000002s both;
}

@-webkit-keyframes animate-svg-fill-6 {
  0% {
    fill: transparent;
  }

  100% {
    fill: rgb(65, 64, 66);
  }
}

@keyframes animate-svg-fill-6 {
  0% {
    fill: transparent;
  }

  100% {
    fill: rgb(65, 64, 66);
  }
}

.svg-elem-6 {
  -webkit-animation: animate-svg-fill-6 0.7s ease 1.3s both;
          animation: animate-svg-fill-6 0.7s ease 1.3s both;
}

@-webkit-keyframes animate-svg-fill-7 {
  0% {
    fill: transparent;
  }

  100% {
    fill: rgb(237, 28, 36);
  }
}

@keyframes animate-svg-fill-7 {
  0% {
    fill: transparent;
  }

  100% {
    fill: rgb(237, 28, 36);
  }
}

.svg-elem-7 {
  -webkit-animation: animate-svg-fill-7 0.7s ease 1.4000000000000001s both;
          animation: animate-svg-fill-7 0.7s ease 1.4000000000000001s both;
          
}

@-webkit-keyframes animate-svg-fill-8 {
  0% {
    fill: transparent;
  }

  100% {
    fill: rgb(237, 28, 36);
  }
}

@keyframes animate-svg-fill-8 {
  0% {
    fill: transparent;
  }

  100% {
    fill: rgb(237, 28, 36);
  }
}

.svg-elem-8 {
  -webkit-animation: animate-svg-fill-8 0.7s ease 1.5s both;
          animation: animate-svg-fill-8 0.7s ease 1.5s both;
          animation-iteration-count: infinite;
}

@-webkit-keyframes animate-svg-fill-9 {
  0% {
    fill: transparent;
  }

  100% {
    fill: rgb(237, 28, 36);
  }
}

@keyframes animate-svg-fill-9 {
  0% {
    fill: transparent;
  }

  100% {
    fill: rgb(237, 28, 36);
  }
}

.svg-elem-9 {
  -webkit-animation: animate-svg-fill-9 0.7s ease 1.6s both;
          animation: animate-svg-fill-9 0.7s ease 1.6s both;
          animation-iteration-count: infinite;
}

    </style>
  </defs>
  <g id="Layer_2" data-name="Layer 2">
    <g id="Layer_1-2" data-name="Layer 1">
      <path class="cls-1 svg-elem-1" d="M116.4,69.53A4.54,4.54,0,1,1,120.93,74a4.53,4.53,0,0,1-4.53-4.51"></path>
      <path class="cls-1 svg-elem-2" d="M14.65,56.76a10.68,10.68,0,0,1,2.25-7A7.38,7.38,0,0,1,23,47.05a7.46,7.46,0,0,1,6.58,3.22,11,11,0,0,1,1.79,6.39,10.72,10.72,0,0,1-2.22,7A7.48,7.48,0,0,1,23,66.38a7.48,7.48,0,0,1-5.65-2.26,10.3,10.3,0,0,1-2.66-7.36m5.58,0A6.77,6.77,0,0,0,21,60.42a2.35,2.35,0,0,0,2,1.18,2.31,2.31,0,0,0,2-1.17,7,7,0,0,0,.78-3.74A6.49,6.49,0,0,0,25,53.12,2.25,2.25,0,0,0,23,51.94a2.35,2.35,0,0,0-2,1.18,6.69,6.69,0,0,0-.79,3.64"></path>
      <path class="cls-1 svg-elem-3" d="M32.59,47.19h4.75l.41,3.14a7.84,7.84,0,0,1,2.08-2.44,4.36,4.36,0,0,1,2.53-.72,3.72,3.72,0,0,1,2.52.8,5.6,5.6,0,0,1,1.51,2.36,8.74,8.74,0,0,1,2.19-2.5A4.26,4.26,0,0,1,51,47.17,3.84,3.84,0,0,1,54.36,49a10.4,10.4,0,0,1,1.19,5.61v11.8h-5.1V55.64a4.08,4.08,0,0,0-.35-1.91,1.48,1.48,0,0,0-1.27-1,1.64,1.64,0,0,0-1.45.92,6,6,0,0,0-.55,3v9.72h-5.1V56a9.7,9.7,0,0,0-.1-1.68,2.49,2.49,0,0,0-.57-1.15,1.26,1.26,0,0,0-1-.43,1.65,1.65,0,0,0-1.44.94,6.22,6.22,0,0,0-.57,3.08v9.59H33Z"></path>
      <path class="cls-1 svg-elem-4" d="M63.87,66.37C56.43,64.62,55.58,58.8,55.5,57V66.4h8.58Z"></path>
      <path class="cls-1 svg-elem-5" d="M118.66,57.56a4.5,4.5,0,0,1,2.22.61V3.75H86.42a7,7,0,1,1-9.85,0H55.5V56.38c0-7.1,4.09-9.08,4.09-9.08,5.06-3,11.61-.61,11.61-.61L70.32,51c-6.28-2.44-8.2.42-8.2.42a7.62,7.62,0,0,0-.61,8.42c2.53,3.81,9.07,1,9.07,1a24.51,24.51,0,0,0,.62,4.43,9.69,9.69,0,0,1-3.69,1.15h8.21V46.23h5.11V66.4H91.44a4.53,4.53,0,0,1-4-3.88V50.34H83.91V46.72h3.58V41.26l5-1.42v6.71H98v3.89H92.5v7.5s-.3,3.43.74,3.61c1.58.53,4.8-.44,4.8-.44l-.7,4.76L94,66.4h6.63l-.32-2.8a9.93,9.93,0,0,0,2.93.41,3,3,0,0,0,1.75-.48,3.51,3.51,0,0,0,1.13-1.72l-6.7-15.5h6.46l3.3,10.32,3.05-10.32h6l-6.34,16.57A11.07,11.07,0,0,1,110,66.4h10.93v-.79a4.34,4.34,0,1,1-2.22-8Z"></path>
      <path class="cls-1 svg-elem-6" d="M7.67,51.82c1.19-.67,3.18-1.16,5.74.51l.66-4.44s-5.18-2.2-9.75.73c0,0-3.72,2-3.59,8.39,0,0,.12,7.11,5.95,9.12a14.17,14.17,0,0,0,7.26-.36,44.5,44.5,0,0,0-.53-4.5s-4.9,1.7-6.93-.85A5.9,5.9,0,0,1,5.5,55a5.46,5.46,0,0,1,2.17-3.18"></path>
      <rect class="cls-2 svg-elem-7" x="120.19" y="37.04" width="0.68" height="38.61"></rect>
      <rect class="cls-2 svg-elem-8" y="70.18" width="129.6" height="0.7"></rect>
      <path class="cls-2 svg-elem-9" d="M74.51,6.93a7,7,0,1,1,7,6.94,7,7,0,0,1-7-6.94"></path>
    </g>
  </g>
</svg>